Coordinates
version=1
nRows=14
nColumns=24
inDegrees=yes

Units are S.I. units (second, meters, Newtons, ...)
Angles are in degrees.

endheader
time	pelvis_tilt	pelvis_list	pelvis_rotation	pelvis_tx	pelvis_ty	pelvis_tz	hip_flexion_r	hip_adduction_r	hip_rotation_r	knee_angle_r	ankle_angle_r	subtalar_angle_r	mtp_angle_r	hip_flexion_l	hip_adduction_l	hip_rotation_l	knee_angle_l	ankle_angle_l	subtalar_angle_l	mtp_angle_l	lumbar_extension	lumbar_bending	lumbar_rotation
      3.23500000	     -8.16138420	      2.72054014	      6.29938928	     -1.17272721	     -0.03502071	      0.67514960	     37.35846994	     -5.89088660	      0.91268916	    -21.80883474	     -6.32548116	     -5.27656106	     17.62910703	     -8.98810815	      4.15645867	     10.10782887	    -13.49011568	     11.42851210	      6.15447753	      5.96680859	      6.96280714	     -1.18621179	    -14.91166583
      3.24000000	     -8.06341227	      2.32317728	      6.53846326	     -1.16450048	     -0.03563572	      0.67479098	     37.00916594	     -5.55892219	      0.81431472	    -21.79273832	     -6.65151408	     -5.36334087	     17.78582944	     -9.26688125	      3.60819097	     10.02092858	    -13.91046031	     10.82372900	      6.61912624	      7.55302140	      6.99306554	     -0.64068135	    -15.07285987
      3.24500000	     -8.21768887	      2.02119065	      6.82755863	     -1.15620368	     -0.03649996	      0.67426484	     36.98134955	     -5.37796290	      0.71134553	    -21.99979692	     -6.95421216	     -5.30700803	     17.78188101	     -9.25201601	      3.24506935	     10.28843089	    -14.46649327	     10.41134562	      6.72023330	      7.68118967	      7.31034292	     -0.22018542	    -15.26827857
      3.25000000	     -8.15125967	      1.62549871	      7.08379654	     -1.14794010	     -0.03713911	      0.67391571	     36.72864805	     -5.06285403	      0.57192189	    -22.27354074	     -7.52725467	     -5.41503635	     18.41102469	     -9.40444227	      2.71610307	     10.26294465	    -15.03480725	      9.66497644	      7.09762389	      9.40859743	      7.38087739	      0.31613851	    -15.44369285
      3.25500000	     -8.27001922	      1.30816449	      7.36281432	     -1.13964434	     -0.03794876	      0.67344166	     36.74235193	     -4.85973225	      0.46262178	    -22.78339390	     -7.95127666	     -5.32438250	     18.48217550	     -9.32488721	      2.35006536	     10.52946100	    -15.75035779	      9.13188913	      7.16457970	      9.65437784	      7.65636163	      0.75554917	    -15.61022516
      3.26000000	     -8.28302512	      0.93765591	      7.56111748	     -1.13127522	     -0.03867045	      0.67313190	     36.66147853	     -4.53876429	      0.48675889	    -23.33531687	     -8.53817279	     -5.37627144	     19.49925932	     -9.30122607	      1.89435302	     10.45349920	    -16.46886645	      8.15482488	      7.33742434	     11.49614773	      7.82915479	      1.27412231	    -15.69907479
      3.26500000	     -8.33223461	      0.58268226	      7.77310845	     -1.12285508	     -0.03935970	      0.67270611	     36.67018932	     -4.24588872	      0.56606060	    -24.08297599	     -8.78333173	     -5.17088304	     19.61140732	     -9.19629765	      1.50846235	     10.61343514	    -17.34849304	      7.50360596	      7.36452782	     11.57275762	      8.05111431	      1.78153743	    -15.76918976
      3.27000000	     -8.42295503	      0.22522417	      7.98084614	     -1.11456866	     -0.04008688	      0.67243026	     36.77917502	     -3.93839530	      0.72039585	    -24.90010277	     -9.17070691	     -5.21237049	     20.57740622	     -8.94481437	      1.09237073	     10.56194412	    -18.27905824	      6.32960077	      7.54416580	     13.65461784	      8.29761938	      2.27381784	    -15.85812330
      3.27500000	     -8.44512272	     -0.16840884	      8.24263091	     -1.10625471	     -0.04065895	      0.67198159	     36.84850324	     -3.63577414	      0.75002900	    -25.85290879	     -9.11367402	     -5.03344030	     20.63922560	     -8.67444180	      0.65861105	     10.57141762	    -19.40318372	      5.38327802	      7.67220458	     14.41145032	      8.48279414	      2.81163285	    -16.00251830
      3.28000000	     -8.53922997	     -0.52736281	      8.33988783	     -1.09790865	     -0.04133780	      0.67178122	     37.06064697	     -3.24163959	      1.03629264	    -26.90968634	     -8.85731786	     -4.96316270	     20.40099595	     -8.28717413	      0.28678068	     10.38119997	    -20.55782711	      4.08037413	      7.72783980	     16.02337498	      8.73821261	      3.33529758	    -15.95310893
      3.28500000	     -8.45627016	     -0.90577434	      8.47017605	     -1.08963306	     -0.04167513	      0.67146127	     37.07977683	     -2.83469684	      1.20235139	    -27.98191316	     -8.39399757	     -4.82959084	     19.50363945	     -8.02607395	     -0.11758327	     10.26144896	    -21.76439229	      2.52940440	      7.64120147	     17.67387386	      8.79166556	      3.91313020	    -15.91008622
      3.29000000	     -8.54388686	     -1.30854615	      8.66104468	     -1.08140247	     -0.04214074	      0.67109114	     37.28020780	     -2.45771736	      1.28907901	    -29.03657758	     -7.96093289	     -4.94641834	     18.62338646	     -7.43072533	     -0.51964694	     10.13469415	    -23.23444018	      1.19249449	      7.77484725	     18.47474640	      9.04352123	      4.47126426	    -15.99182818
      3.29500000	     -8.46932241	     -1.64313725	      8.71526787	     -1.07317724	     -0.04241792	      0.67085825	     37.32181829	     -2.04232866	      1.37059750	    -30.15513323	     -7.11835344	     -4.82213702	     16.46339921	     -7.00222011	     -0.86361561	      9.82574454	    -24.63265737	     -0.72869815	      7.62842569	     20.29475633	      9.08614720	      5.01823963	    -15.83756561
      3.30000000	     -8.44163617	     -2.00588850	      8.81018402	     -1.06498180	     -0.04263847	      0.67056106	     37.35040043	     -1.63042603	      1.38989005	    -31.13461966	     -6.41877529	     -4.90308595	     14.74395682	     -6.41469349	     -1.22835872	      9.53295733	    -26.16471335	     -2.72575113	      7.49258745	     21.78267339	      9.19035180	      5.57860812	    -15.80722714
